<svg width="20" height="21" viewBox="0 0 20 21" fill="none" xmlns="http://www.w3.org/2000/svg">
<path fill-rule="evenodd" clip-rule="evenodd" d="M17.0542 9.18469H17.1028C18.2217 9.18469 19 10.4345 19 11.4881V14.5512C19 15.5069 18.3433 16.1685 17.2974 16.242L16.8352 16.9282C15.9216 18.1523 14.4879 18.8699 12.9678 18.8641C12.8995 19.3078 12.6954 19.719 12.384 20.0403C11.9224 20.5162 11.293 20.7892 10.6327 20.8C9.29882 20.8001 8.21368 19.7178 8.20036 18.374C8.20935 17.2283 9.01278 16.2451 10.1271 16.0161C11.4302 15.7484 12.702 16.5956 12.9678 17.9084C14.1817 17.9142 15.327 17.3418 16.0569 16.3646L16.1055 16.2911H15.5461C15.5369 16.2907 15.5277 16.29 15.5186 16.289C15.2648 16.2616 15.0811 16.0322 15.1083 15.7765V9.77277C15.1083 9.47868 15.2785 9.18464 15.5461 9.18464H16.0812V7.98389C16.0812 4.66814 13.4131 1.98016 10.1219 1.98016C6.83075 1.98016 4.16268 4.66814 4.16268 7.98389V9.18464H4.6978C4.96536 9.18464 5.13562 9.47873 5.13562 9.77277V15.7765C5.1366 15.7857 5.1373 15.7949 5.13772 15.8042C5.14973 16.061 4.95275 16.2791 4.6978 16.2911H2.89787L2.87277 16.2907C1.81188 16.2635 0.973676 15.3751 1.00063 14.3063V11.2431C1.00063 10.1404 1.82762 9.18469 2.89787 9.18469H3.18973V7.98394C3.18973 4.12682 6.29335 1 10.1219 1C13.9505 1 17.0542 4.12682 17.0542 7.98394V9.18469ZM2.89787 15.3109H4.16268V10.1649H2.89787C2.36275 10.1649 1.97358 10.6795 1.97358 11.2431V14.3062L1.9726 14.3323C1.95985 14.86 2.37411 15.2981 2.89787 15.3109ZM11.6787 19.3543C11.4091 19.6488 11.0304 19.8174 10.6328 19.8199C9.8414 19.8072 9.1992 19.171 9.17336 18.3741C9.17303 17.5756 9.81529 16.928 10.6079 16.9277C11.4005 16.9274 12.0432 17.5744 12.0435 18.3729V18.3741C12.0638 18.7379 11.9314 19.0936 11.6787 19.3543ZM17.1028 15.311C17.3947 15.311 18.0271 15.2129 18.0271 14.5513V11.4882C18.0271 10.9246 17.6379 10.1649 17.1028 10.1649H16.0812V15.311H17.1028Z" fill="#004F71"/>
<path d="M17.0542 9.18469H16.9042V9.33469H17.0542V9.18469ZM19 11.4881L18.85 11.4881V11.4881H19ZM17.2974 16.242L17.2869 16.0924L17.2138 16.0975L17.173 16.1582L17.2974 16.242ZM16.8352 16.9282L16.9556 17.018L16.9596 17.012L16.8352 16.9282ZM12.9678 18.8641L12.9684 18.7141L12.8392 18.7136L12.8195 18.8413L12.9678 18.8641ZM12.384 20.0403L12.4917 20.1448L12.4917 20.1447L12.384 20.0403ZM10.6327 20.8L10.6327 20.95L10.6352 20.95L10.6327 20.8ZM8.20036 18.374L8.05034 18.3728L8.05037 18.3755L8.20036 18.374ZM10.1271 16.0161L10.1573 16.1631L10.1573 16.1631L10.1271 16.0161ZM12.9678 17.9084L12.8208 17.9382L12.845 18.0578L12.9671 18.0584L12.9678 17.9084ZM16.0569 16.3646L16.1772 16.4545L16.1819 16.4474L16.0569 16.3646ZM16.1055 16.2911L16.2306 16.3739L16.3847 16.1411H16.1055V16.2911ZM15.5461 16.2911L15.5392 16.4411H15.5461V16.2911ZM15.5186 16.289L15.5347 16.1399L15.5347 16.1399L15.5186 16.289ZM15.1083 15.7765L15.2574 15.7923L15.2583 15.7845V15.7765H15.1083ZM16.0812 9.18464V9.33464H16.2312V9.18464H16.0812ZM4.16268 9.18464H4.01268V9.33464H4.16268V9.18464ZM5.13562 15.7765H4.98562V15.7845L4.98646 15.7924L5.13562 15.7765ZM5.13772 15.8042L4.98787 15.811L4.98788 15.8112L5.13772 15.8042ZM4.6978 16.2911V16.4413L4.70488 16.441L4.6978 16.2911ZM2.89787 16.2911L2.89507 16.4411H2.89787V16.2911ZM2.87277 16.2907L2.86894 16.4406L2.86998 16.4407L2.87277 16.2907ZM1.00063 14.3063L1.15063 14.31V14.3063H1.00063ZM3.18973 9.18469V9.33469H3.33973V9.18469H3.18973ZM4.16268 15.3109V15.4609H4.31268V15.3109H4.16268ZM2.89787 15.3109L2.89419 15.4609H2.89787V15.3109ZM4.16268 10.1649H4.31268V10.0149H4.16268V10.1649ZM1.97358 14.3062L2.12358 14.3118V14.3062H1.97358ZM1.9726 14.3323L1.8227 14.3267L1.82265 14.3287L1.9726 14.3323ZM10.6328 19.8199L10.6304 19.9699L10.6337 19.9699L10.6328 19.8199ZM11.6787 19.3543L11.5709 19.2498L11.568 19.253L11.6787 19.3543ZM9.17336 18.3741L9.02328 18.3741L9.02344 18.3789L9.17336 18.3741ZM10.6079 16.9277L10.6079 17.0777L10.6079 16.9277ZM12.0435 18.3729H12.1935V18.3729L12.0435 18.3729ZM12.0435 18.3741H11.8933L11.8938 18.3824L12.0435 18.3741ZM16.0812 10.1649V10.0149H15.9312V10.1649H16.0812ZM16.0812 15.311H15.9312V15.461H16.0812V15.311ZM17.1028 9.03469H17.0542V9.33469H17.1028V9.03469ZM19.15 11.4881C19.15 10.9275 18.9441 10.3202 18.5908 9.85104C18.2371 9.38122 17.7226 9.03469 17.1028 9.03469V9.33469C17.602 9.33469 18.0361 9.61304 18.3512 10.0315C18.6668 10.4506 18.85 10.995 18.85 11.4881L19.15 11.4881ZM19.15 14.5512V11.4881H18.85V14.5512H19.15ZM17.3079 16.3917C17.86 16.3529 18.3219 16.1576 18.6468 15.8337C18.9726 15.5088 19.15 15.065 19.15 14.5512H18.85C18.85 14.9931 18.699 15.358 18.435 15.6212C18.1701 15.8854 17.7806 16.0577 17.2869 16.0924L17.3079 16.3917ZM16.9596 17.012L17.4218 16.3258L17.173 16.1582L16.7108 16.8444L16.9596 17.012ZM12.9672 19.0141C14.5352 19.0201 16.0135 18.2799 16.9554 17.0179L16.715 16.8385C15.8296 18.0247 14.4407 18.7197 12.9684 18.7141L12.9672 19.0141ZM12.4917 20.1447C12.8249 19.801 13.043 19.3613 13.116 18.8869L12.8195 18.8413C12.7559 19.2544 12.566 19.6371 12.2763 19.9359L12.4917 20.1447ZM10.6352 20.95C11.3354 20.9385 12.0026 20.6491 12.4917 20.1448L12.2763 19.9359C11.8423 20.3834 11.2507 20.6399 10.6303 20.65L10.6352 20.95ZM8.05037 18.3755C8.06449 19.8005 9.21553 20.9501 10.6327 20.95L10.6327 20.65C9.38211 20.6501 8.36286 19.6351 8.35035 18.3725L8.05037 18.3755ZM10.0969 15.8692C8.91254 16.1125 8.0599 17.1571 8.05036 18.3728L8.35036 18.3752C8.35879 17.2995 9.11301 16.3776 10.1573 16.1631L10.0969 15.8692ZM13.1148 17.8786C12.8328 16.4854 11.4823 15.5845 10.0969 15.8692L10.1573 16.1631C11.3781 15.9122 12.5713 16.7058 12.8208 17.9382L13.1148 17.8786ZM15.9367 16.2748C15.2351 17.2142 14.1346 17.764 12.9685 17.7584L12.9671 18.0584C14.2288 18.0644 15.4189 17.4695 16.177 16.4544L15.9367 16.2748ZM15.9804 16.2083L15.9318 16.2818L16.1819 16.4474L16.2306 16.3739L15.9804 16.2083ZM15.5461 16.4411H16.1055V16.1411H15.5461V16.4411ZM15.5025 16.4381C15.5147 16.4394 15.527 16.4404 15.5392 16.4409L15.553 16.1413C15.5469 16.141 15.5408 16.1405 15.5347 16.1399L15.5025 16.4381ZM14.9591 15.7607C14.9233 16.0976 15.1655 16.4018 15.5026 16.4381L15.5347 16.1399C15.3642 16.1215 15.2389 15.9668 15.2574 15.7923L14.9591 15.7607ZM14.9583 9.77277V15.7765H15.2583V9.77277H14.9583ZM15.5461 9.03464C15.3508 9.03464 15.1997 9.14356 15.1033 9.28329C15.0081 9.42152 14.9583 9.59907 14.9583 9.77277H15.2583C15.2583 9.65238 15.2936 9.53587 15.3503 9.45355C15.406 9.37275 15.4738 9.33464 15.5461 9.33464V9.03464ZM16.0812 9.03464H15.5461V9.33464H16.0812V9.03464ZM15.9312 7.98389V9.18464H16.2312V7.98389H15.9312ZM10.1219 2.13016C13.3292 2.13016 15.9312 4.74993 15.9312 7.98389H16.2312C16.2312 4.58635 13.497 1.83016 10.1219 1.83016V2.13016ZM4.31268 7.98389C4.31268 4.74993 6.91465 2.13016 10.1219 2.13016V1.83016C6.74686 1.83016 4.01268 4.58635 4.01268 7.98389H4.31268ZM4.31268 9.18464V7.98389H4.01268V9.18464H4.31268ZM4.6978 9.03464H4.16268V9.33464H4.6978V9.03464ZM5.28562 9.77277C5.28562 9.5991 5.23583 9.42155 5.14055 9.28332C5.04424 9.14358 4.89307 9.03464 4.6978 9.03464V9.33464C4.77009 9.33464 4.83784 9.37275 4.89354 9.45357C4.95028 9.5359 4.98562 9.65241 4.98562 9.77277H5.28562ZM5.28562 15.7765V9.77277H4.98562V15.7765H5.28562ZM5.28756 15.7974C5.28701 15.7851 5.28608 15.7729 5.28478 15.7606L4.98646 15.7924C4.98712 15.7985 4.98759 15.8047 4.98787 15.811L5.28756 15.7974ZM4.70488 16.441C5.0436 16.425 5.30338 16.1357 5.28755 15.7972L4.98788 15.8112C4.99607 15.9864 4.86189 16.1332 4.69072 16.1413L4.70488 16.441ZM2.89787 16.4411H4.6978V16.1411H2.89787V16.4411ZM2.86998 16.4407L2.89507 16.4411L2.90067 16.1412L2.87557 16.1407L2.86998 16.4407ZM0.85068 14.3025C0.821662 15.453 1.72421 16.4113 2.86894 16.4406L2.87661 16.1407C1.89956 16.1157 1.12569 15.2971 1.15058 14.31L0.85068 14.3025ZM0.850632 11.2431V14.3063H1.15063V11.2431H0.850632ZM2.89787 9.03469C1.73087 9.03469 0.850632 10.0722 0.850632 11.2431H1.15063C1.15063 10.2086 1.92437 9.33469 2.89787 9.33469V9.03469ZM3.18973 9.03469H2.89787V9.33469H3.18973V9.03469ZM3.03973 7.98394V9.18469H3.33973V7.98394H3.03973ZM10.1219 0.85C6.20946 0.85 3.03973 4.04503 3.03973 7.98394H3.33973C3.33973 4.20861 6.37724 1.15 10.1219 1.15V0.85ZM17.2042 7.98394C17.2042 4.04503 14.0344 0.85 10.1219 0.85V1.15C13.8666 1.15 16.9042 4.20861 16.9042 7.98394H17.2042ZM17.2042 9.18469V7.98394H16.9042V9.18469H17.2042ZM4.16268 15.1609H2.89787V15.4609H4.16268V15.1609ZM4.01268 10.1649V15.3109H4.31268V10.1649H4.01268ZM2.89787 10.3148H4.16268V10.0149H2.89787V10.3148ZM2.12358 11.2431C2.12358 10.734 2.47136 10.3148 2.89787 10.3148V10.0149C2.25414 10.0149 1.82358 10.625 1.82358 11.2431H2.12358ZM2.12358 14.3062V11.2431H1.82358V14.3062H2.12358ZM2.1225 14.3379L2.12348 14.3118L1.82369 14.3006L1.82271 14.3267L2.1225 14.3379ZM2.90155 15.161C2.46162 15.1502 2.11178 14.7818 2.12256 14.3359L1.82265 14.3287C1.80792 14.9381 2.2866 15.446 2.89419 15.4609L2.90155 15.161ZM10.6337 19.9699C11.0733 19.9671 11.4917 19.7807 11.7893 19.4556L11.568 19.253C11.3265 19.5168 10.9875 19.6676 10.6318 19.6699L10.6337 19.9699ZM9.02344 18.3789C9.05184 19.2549 9.75802 19.9559 10.6304 19.9699L10.6352 19.6699C9.92479 19.6586 9.34656 19.0872 9.32328 18.3692L9.02344 18.3789ZM10.6078 16.7777C9.73133 16.7781 9.023 17.4939 9.02336 18.3741L9.32336 18.374C9.32307 17.6573 9.89924 17.078 10.6079 17.0777L10.6078 16.7777ZM12.1935 18.3729C12.1932 17.4926 11.4843 16.7773 10.6078 16.7777L10.6079 17.0777C11.3166 17.0774 11.8932 17.6563 11.8935 18.373L12.1935 18.3729ZM12.1935 18.3741V18.3729H11.8935V18.3741H12.1935ZM11.7864 19.4587C12.0683 19.1678 12.2159 18.7712 12.1933 18.3658L11.8938 18.3824C11.9117 18.7046 11.7944 19.0194 11.571 19.2499L11.7864 19.4587ZM17.8771 14.5513C17.8771 14.8218 17.7539 14.9642 17.602 15.0479C17.4391 15.1376 17.2371 15.161 17.1028 15.161V15.461C17.2603 15.461 17.5205 15.4353 17.7468 15.3106C17.9841 15.1798 18.1771 14.9424 18.1771 14.5513H17.8771ZM17.8771 11.4882V14.5513H18.1771V11.4882H17.8771ZM17.1028 10.3149C17.295 10.3149 17.4862 10.4534 17.6387 10.6952C17.7888 10.9331 17.8771 11.2364 17.8771 11.4882H18.1771C18.1771 11.1763 18.0708 10.818 17.8925 10.5352C17.7166 10.2563 17.4458 10.0149 17.1028 10.0149V10.3149ZM16.0812 10.3149H17.1028V10.0149H16.0812V10.3149ZM16.2312 15.311V10.1649H15.9312V15.311H16.2312ZM17.1028 15.161H16.0812V15.461H17.1028V15.161Z" fill="#004F71"/>
</svg>
