<svg width="254" height="254" viewBox="0 0 254 254" fill="none" xmlns="http://www.w3.org/2000/svg">
<g filter="url(#filter0_d_2021_9411)">
<circle cx="127" cy="123" r="115" fill="white"/>
</g>
<circle cx="127" cy="123" r="108" fill="#F2F2F2"/>
<path d="M158.687 20.5371H100.328C88.6231 20.5371 79.1343 30.0022 79.1343 41.678V138.426C79.1343 150.102 88.6231 159.567 100.328 159.567H158.687C170.392 159.567 179.881 150.102 179.881 138.426V41.678C179.881 30.0022 170.392 20.5371 158.687 20.5371Z" fill="#4D849C"/>
<path d="M147.76 36.6567H109.24C101.516 36.6567 95.2538 43.5733 95.2538 52.1053V123.969C95.2538 132.501 101.516 139.418 109.24 139.418H147.76C155.484 139.418 161.746 132.501 161.746 123.969V52.1053C161.746 43.5733 155.484 36.6567 147.76 36.6567Z" fill="white"/>
<path d="M86.6903 126.321C95.871 126.321 103.313 121.359 103.313 115.239C103.313 109.118 95.871 104.157 86.6903 104.157C77.5096 104.157 70.0672 109.118 70.0672 115.239C70.0672 121.359 77.5096 126.321 86.6903 126.321Z" fill="#003654"/>
<path d="M172.325 126.321C181.505 126.321 188.948 121.359 188.948 115.239C188.948 109.118 181.505 104.157 172.325 104.157C163.144 104.157 155.701 109.118 155.701 115.239C155.701 121.359 163.144 126.321 172.325 126.321Z" fill="#003654"/>
<path d="M181.447 110H72.5528C66.1724 110 61 115.303 61 121.844V206.156C61 212.697 66.1724 218 72.5528 218H181.447C187.828 218 193 212.697 193 206.156V121.844C193 115.303 187.828 110 181.447 110Z" fill="#FAEE43"/>
<path d="M137.567 155.284C137.57 152.815 136.9 150.391 135.625 148.262C134.351 146.133 132.519 144.378 130.32 143.178C128.121 141.978 125.634 141.376 123.118 141.437C120.602 141.497 118.148 142.217 116.011 143.521C113.874 144.825 112.132 146.666 110.965 148.853C109.799 151.041 109.25 153.494 109.376 155.96C109.502 158.425 110.298 160.813 111.682 162.875C113.066 164.936 114.987 166.597 117.247 167.685C117.053 168.327 116.951 168.992 116.944 169.662V182.587C116.944 184.498 117.718 186.33 119.095 187.681C120.473 189.032 122.341 189.791 124.289 189.791C126.237 189.791 128.105 189.032 129.482 187.681C130.859 186.33 131.633 184.498 131.633 182.587V169.711C131.636 168.754 131.44 167.806 131.059 166.925C133.052 165.675 134.692 163.954 135.83 161.92C136.967 159.886 137.564 157.604 137.567 155.284Z" fill="#F2F2F2"/>
<path d="M190.384 217.999H183.43C182.757 217.997 182.112 217.74 181.636 217.286C181.159 216.833 180.891 216.218 180.888 215.576V112.625C180.891 111.983 181.159 111.368 181.636 110.914C182.112 110.46 182.757 110.204 183.43 110.201H190.436C191.109 110.204 191.754 110.46 192.23 110.914C192.706 111.368 192.975 111.983 192.978 112.625V215.576C192.978 215.898 192.91 216.217 192.779 216.515C192.648 216.812 192.456 217.081 192.215 217.307C191.973 217.533 191.687 217.71 191.373 217.829C191.058 217.948 190.722 218.006 190.384 217.999Z" fill="#FFCB05"/>
<defs>
<filter id="filter0_d_2021_9411" x="0" y="0" width="254" height="254" filterUnits="userSpaceOnUse" color-interpolation-filters="sRGB">
<feFlood flood-opacity="0" result="BackgroundImageFix"/>
<feColorMatrix in="SourceAlpha" type="matrix" values="0 0 0 0 0 0 0 0 0 0 0 0 0 0 0 0 0 0 127 0" result="hardAlpha"/>
<feOffset dy="4"/>
<feGaussianBlur stdDeviation="6"/>
<feComposite in2="hardAlpha" operator="out"/>
<feColorMatrix type="matrix" values="0 0 0 0 0 0 0 0 0 0 0 0 0 0 0 0 0 0 0.1 0"/>
<feBlend mode="normal" in2="BackgroundImageFix" result="effect1_dropShadow_2021_9411"/>
<feBlend mode="normal" in="SourceGraphic" in2="effect1_dropShadow_2021_9411" result="shape"/>
</filter>
</defs>
</svg>
