<svg width="254" height="254" viewBox="0 0 254 254" fill="none" xmlns="http://www.w3.org/2000/svg">
<g filter="url(#filter0_d_1910_1288)">
<path d="M127 238C190.513 238 242 186.513 242 123C242 59.4873 190.513 8 127 8C63.4872 8 12 59.4873 12 123C12 186.513 63.4872 238 127 238Z" fill="white"/>
</g>
<path d="M127.006 231.002C186.654 231.002 235.008 182.648 235.008 123C235.008 63.3519 186.654 14.9977 127.006 14.9977C67.3577 14.9977 19.0034 63.3519 19.0034 123C19.0034 182.648 67.3577 231.002 127.006 231.002Z" fill="#F2F2F2"/>
<path d="M125.673 217.277C178.055 217.277 218.001 177.217 218.001 125.645C218.001 74.0731 178.055 32.2764 125.673 32.2764C73.2902 32.2764 33 74.1881 33 125.754C33 177.32 73.2845 217.271 125.667 217.271L125.673 217.277Z" stroke="#0FAF4B" stroke-width="6.99775" stroke-miterlimit="10"/>
<mask id="mask0_1910_1288" style="mask-type:luminance" maskUnits="userSpaceOnUse" x="34" y="37" width="182" height="177">
<path d="M125.08 213.603C175.024 213.603 215.51 174.232 215.51 125.668C215.51 77.1034 175.024 37.7332 125.08 37.7332C75.1352 37.7332 34.6494 77.1034 34.6494 125.668C34.6494 174.232 75.1352 213.603 125.08 213.603Z" fill="white"/>
</mask>
<g mask="url(#mask0_1910_1288)">
<path d="M68.3274 118.509C55.7636 127.243 41.5956 273.121 41.4634 280.153C41.3311 287.185 69.6614 283.873 69.6614 283.873C69.6614 283.873 77.2054 193.046 80.1091 162.801C83.7604 124.708 75.1124 113.794 68.3274 118.509Z" fill="black"/>
<path d="M197.495 198.313C197.495 198.313 199.876 193.685 207.862 190.689C210.53 186.169 239.441 160.979 245.295 143.43C248.912 132.591 243.84 125.438 241.097 121.476C238.355 117.514 235.83 113.438 238.09 111.304C240.833 108.723 240.988 103.789 242.477 103.789C243.967 103.789 245.381 105.652 245.571 108.941C245.755 112.23 261.291 106.083 261.291 106.083C261.291 106.083 271.452 114.122 273.332 115.531C275.212 116.939 276.034 117.118 275.511 120.217C273.05 134.77 264.897 134.69 261.7 143.947C240.442 205.489 215.493 217.973 208.495 219.68C201.497 221.382 197.501 198.308 197.501 198.308L197.495 198.313Z" fill="#3C2314"/>
<mask id="mask1_1910_1288" style="mask-type:luminance" maskUnits="userSpaceOnUse" x="197" y="103" width="79" height="117">
<path d="M197.495 198.313C197.495 198.313 199.876 193.685 207.862 190.689C210.53 186.169 239.441 160.979 245.295 143.43C248.912 132.591 243.84 125.438 241.097 121.476C238.355 117.514 235.83 113.438 238.09 111.304C240.833 108.723 240.988 103.789 242.477 103.789C243.967 103.789 245.381 105.652 245.571 108.941C245.755 112.23 261.291 106.083 261.291 106.083C261.291 106.083 271.452 114.122 273.332 115.531C275.212 116.939 276.034 117.118 275.511 120.217C273.05 134.77 264.897 134.69 261.7 143.947C240.442 205.489 215.493 217.973 208.495 219.68C201.497 221.382 197.501 198.308 197.501 198.308L197.495 198.313Z" fill="white"/>
</mask>
<g mask="url(#mask1_1910_1288)">
<path d="M268.945 113.978C261.866 116.675 273.159 138.916 255.633 138.582C250.05 138.473 208.616 208.79 218.977 212.752C229.781 216.88 243.765 189.815 256.789 175.894C269.807 161.973 273.97 152.578 276.305 143.372C285.798 105.893 276.029 111.281 268.95 113.978H268.945Z" fill="#5F3919"/>
</g>
<path d="M241.834 139.64C244.663 135.437 271.222 150.956 268.381 156.045C245.657 196.749 212.123 231.957 204.735 231.157C198.737 230.508 184.92 223.303 174.104 192.466C166.342 170.345 167.682 110.212 175.588 114.461C183.494 118.71 201.216 189.131 206.638 189.447C212.06 189.763 239.005 143.838 241.834 139.635V139.64Z" fill="#282828"/>
<mask id="mask2_1910_1288" style="mask-type:luminance" maskUnits="userSpaceOnUse" x="168" y="114" width="101" height="118">
<path d="M241.834 139.64C244.663 135.437 271.222 150.956 268.381 156.045C245.657 196.749 212.123 231.957 204.735 231.157C198.737 230.508 184.92 223.303 174.104 192.466C166.342 170.345 167.682 110.212 175.588 114.461C183.494 118.71 201.216 189.131 206.638 189.447C212.06 189.763 239.005 143.838 241.834 139.635V139.64Z" fill="white"/>
</mask>
<g mask="url(#mask2_1910_1288)">
<path d="M251.982 142.883C251.982 142.883 217.189 193.064 211.692 195.99C206.201 198.923 200.336 174.014 195.212 157.534C190.083 141.055 227.441 112.483 234.036 115.048C240.632 117.612 251.982 142.883 251.982 142.883Z" fill="black"/>
<path d="M177.721 218.599C175.645 201.861 176.117 178.321 180.464 186.215C184.811 194.116 198.858 231.692 205.965 232.486C213.072 233.273 179.153 230.128 177.721 218.599Z" fill="black"/>
</g>
<path d="M106.732 100.644C103.995 101.317 96.2494 110.361 102.057 166.194C107.87 222.026 97.7559 276.686 97.7559 276.686C97.7559 276.686 148.839 293.263 162.093 270.637C162.093 270.637 147.424 189.487 148.034 166.596C148.643 143.7 143.135 100.903 138.374 100.563C133.613 100.224 109.469 99.977 106.732 100.65V100.644Z" fill="white"/>
<mask id="mask3_1910_1288" style="mask-type:luminance" maskUnits="userSpaceOnUse" x="97" y="100" width="66" height="183">
<path d="M106.732 100.644C103.995 101.317 96.2494 110.361 102.057 166.194C107.87 222.026 97.7559 276.686 97.7559 276.686C97.7559 276.686 148.839 293.263 162.093 270.637C162.093 270.637 147.424 189.487 148.034 166.596C148.643 143.7 143.135 100.903 138.374 100.563C133.613 100.224 109.469 99.977 106.732 100.65V100.644Z" fill="white"/>
</mask>
<g mask="url(#mask3_1910_1288)">
<path opacity="0.28" d="M123.01 109.884C123.01 109.884 114.563 118.193 116.633 133.862C118.703 149.525 119.681 271.81 122.82 290.377C125.96 308.943 99.8259 317.218 81.5524 319.627C63.2789 322.036 89.3839 563.829 21.9076 591.142L-22.2754 507.037V67.7539L87.1816 93.9969L123.01 109.884Z" fill="#004F71"/>
</g>
<path d="M115.437 114.174C113.844 119.297 118.766 122.281 120.054 128.485C124.752 151.198 113.378 251.909 117.76 255.336C122.141 258.763 127.696 267.101 127.696 267.101C127.696 267.101 132.629 259.884 136.85 256.906C141.07 253.927 121.549 140.399 128.351 125.398C130.421 120.826 130.953 111.5 130.953 111.5L123.015 109.89C123.015 109.89 117.035 109.056 115.443 114.179L115.437 114.174Z" fill="#106E8E"/>
<mask id="mask4_1910_1288" style="mask-type:luminance" maskUnits="userSpaceOnUse" x="115" y="108" width="23" height="160">
<path d="M115.437 114.174C113.844 119.297 118.766 122.281 120.054 128.485C124.752 151.198 113.378 251.909 117.76 255.336C122.141 258.763 127.696 267.101 127.696 267.101C127.696 267.101 132.629 259.884 136.85 256.906C141.07 253.927 121.549 140.399 128.351 125.398C131.312 119.406 130.953 108.625 130.953 108.625L121.609 110.062C121.609 110.062 117.035 109.056 115.443 114.179L115.437 114.174Z" fill="white"/>
</mask>
<g mask="url(#mask4_1910_1288)">
<path d="M129.473 121.959C129.737 118.912 123.309 111.885 122.578 115.577C121.963 118.688 121.837 124.507 123.073 133.862C125.143 149.525 128.213 265.796 127.69 287.761C62.7668 268.596 88.8604 88.3966 88.8604 88.3966L138.402 104.146C138.402 104.146 133.118 122.224 129.473 121.959Z" fill="#004F71"/>
</g>
<path d="M140.656 106.469C140.656 106.469 144.609 117.969 132.391 126.594C130.594 123.719 130.594 123.359 129.516 121.922L131.672 112.578L140.656 106.469Z" fill="#B8CED8"/>
<path d="M138.73 101.754C138.73 101.754 146.349 113.645 134.832 124.069C131.531 118.538 128.144 113.34 121.181 110.114L138.73 101.754Z" fill="white"/>
<path d="M105.034 101.754C105.034 101.754 97.4153 113.645 108.933 124.069C112.233 118.538 115.62 113.34 122.583 110.114L105.034 101.754Z" fill="#D8E8EF"/>
<path d="M142.37 106.515C142.37 106.515 171.638 112.178 175.582 114.461C180.332 117.215 177.934 199.837 199.284 303.556C199.859 306.362 165.008 314.854 163.248 307.972C161.489 301.089 142.916 185.738 146.067 157.35C150.345 118.825 142.376 106.509 142.376 106.509L142.37 106.515Z" fill="#282828"/>
<path d="M101.033 108.981C101.033 108.981 73.1975 113.995 68.3273 118.509C63.457 123.023 74.313 196.318 55.6198 306.5C54.602 312.503 97.8018 316.326 98.9805 308.489C100.165 300.652 114.638 197.773 104.943 160.03C95.3005 122.488 101.033 108.976 101.033 108.976V108.981Z" fill="black"/>
<path d="M141.013 104.554C144.882 104.174 156.607 122.275 158.211 149.852L148.729 163.779L161.155 184.151L155.232 254.324C155.232 254.324 144.417 188.274 144.555 159.627C144.687 130.975 143.491 110.338 141.013 104.554Z" fill="black"/>
<path d="M105.156 253.542L90.4015 175.63L97.7615 162.577L87.791 150.128C89.3953 122.546 100.067 102.892 103.5 104.393C101.959 107.837 97.7155 121.746 104.943 153.544C112.907 188.596 105.156 253.548 105.156 253.548V253.542Z" fill="#282828"/>
</g>
<path d="M180.815 190.474C187.226 193.872 198.789 196.649 204.171 191.388C218.65 177.22 182.844 110.278 170.298 113.326C159.298 115.994 152.91 175.713 180.809 190.485H180.815V190.474Z" fill="black"/>
<path d="M138.318 100.392C141.164 111.212 105.495 114.569 106.128 102.492C106.609 93.226 107.844 84.3657 97.3252 62.7576L134.445 51.8208C134.445 51.8208 136.418 93.1557 138.318 100.392Z" fill="#C29A6D"/>
<mask id="mask5_1910_1288" style="mask-type:luminance" maskUnits="userSpaceOnUse" x="97" y="51" width="42" height="60">
<path d="M138.317 100.392C141.163 111.212 105.494 114.569 106.128 102.492C106.609 93.226 107.843 84.3657 97.3247 62.7576L134.445 51.8208C134.445 51.8208 136.417 93.1557 138.317 100.392Z" fill="white"/>
</mask>
<g mask="url(#mask5_1910_1288)">
<path d="M112.726 86.754C114.45 92.6166 125.754 76.7696 126.588 84.092C127.47 91.7736 129.426 97.1209 138.47 103.194C143.857 106.809 103.009 133.475 103.009 133.475L85.8521 62.5073C85.8521 62.5073 110.994 80.8914 112.718 86.754H112.726Z" fill="#AA7D50"/>
</g>
<path d="M191.429 159.886L184.736 156.77L160.701 145.574C160.701 145.574 159.465 135.995 153.703 132.579C152.726 130.302 151.593 127.801 150.575 125.817C148.039 120.913 151.84 111.672 148.678 111.672C145.515 111.672 140.835 121.39 141.082 124C141.277 125.996 142.968 129.486 143.319 132.539C139.46 133.959 136.344 136.386 134.297 138.318C132.526 139.985 131.87 142.487 132.555 144.798C134.561 151.48 139.575 165.291 146.769 165.291C156.262 165.291 158.798 163.44 158.798 163.44C158.798 163.44 178.417 187.475 192.976 189.326C207.535 191.178 191.423 159.88 191.423 159.88H191.429V159.886Z" fill="#AA7D50"/>
<path d="M185.063 157.684C185.063 157.684 194.321 185.428 194.246 189.407C194.246 189.407 200.698 190.482 198.662 179.384C198.662 179.384 194.608 164.515 191.44 159.886L184.747 156.77L185.069 157.684H185.063Z" fill="#CE9663"/>
<path d="M168.004 93.9969C176.289 93.9969 183.005 87.2809 183.005 78.9952C183.005 70.7094 176.289 63.9934 168.004 63.9934C159.718 63.9934 153.002 70.7094 153.002 78.9952C153.002 87.2809 159.718 93.9969 168.004 93.9969Z" fill="#0FAF4B"/>
<path d="M174.202 73.4812C171.287 76.3964 168.372 79.8004 164.732 82.6984C163.34 80.2547 162.725 79.5014 161.454 77.2762C160.971 76.4309 159.614 77.0117 160.103 77.8569C161.725 80.6859 162.472 81.7899 164.094 84.6189C164.375 85.1077 165.129 85.1134 165.399 84.6189C168.855 81.7439 172.742 77.3682 175.461 74.4529C175.927 73.6019 175.657 72.9924 174.685 72.9924L174.196 73.4812H174.202Z" fill="white"/>
<path d="M160.902 173.105C160.902 173.105 175.864 165.412 171.35 150.537L186.214 154.234C186.214 154.234 197.018 153.699 199.071 161.818C201.124 169.937 201.877 184.962 199.071 189.435C196.265 193.909 182.505 196.491 160.908 173.1L160.902 173.105Z" fill="black"/>
<path d="M195.092 162.353C191.148 161.767 187.387 160.582 183.638 159.024C180.861 157.868 178.107 156.661 175.364 155.424C175.232 155.367 175.122 155.321 175.019 155.275C174.616 155.114 174.208 154.947 173.8 154.792C173.231 154.579 172.661 154.378 172.086 154.188C172.38 156.983 171.989 159.472 171.189 161.657C183.506 162.986 192.671 170.748 200.871 179.787C206.062 181.65 209.8 179.787 204.05 162.353C202.48 161.445 196.633 163.29 195.086 162.347L195.092 162.353Z" fill="#282828"/>
<path d="M160.902 173.105L161.88 166.993L165.209 170.046L160.902 173.105Z" fill="black"/>
<path d="M164.123 171.472L159.546 167.93C159.546 167.93 169.355 151.664 168.004 147.874L171.351 150.537C171.351 150.537 176.129 160.484 164.123 171.472Z" fill="#F2F2F2"/>
<path d="M148.914 60.6072C150.044 55.2127 148.337 50.3184 145.1 49.6756C141.864 49.0327 138.324 52.8846 137.193 58.2791C136.063 63.6736 137.771 68.5679 141.007 69.2108C144.244 69.8536 147.784 66.0017 148.914 60.6072Z" fill="#C29A6D"/>
<path d="M103.184 69.4454C106.421 68.8026 108.128 63.9083 106.998 58.5138C105.868 53.1193 102.328 49.2673 99.0912 49.9102C95.8547 50.5531 94.1472 55.4473 95.2774 60.8418C96.4076 66.2363 99.9475 70.0883 103.184 69.4454Z" fill="#AA7D50"/>
<path d="M145.754 51.4641C145.73 73.6578 136.205 90.2776 121.982 90.2776C107.76 90.2776 97.9144 72.799 97.9063 50.6054C97.9063 20.7615 96.9042 20.3478 122.047 23.2674C146.94 27.9356 145.786 17.8888 145.754 51.4641Z" fill="#C29A6D"/>
<mask id="mask6_1910_1288" style="mask-type:luminance" maskUnits="userSpaceOnUse" x="97" y="22" width="49" height="69">
<path d="M145.754 51.4639C145.73 73.6575 136.205 90.2774 121.982 90.2774C107.76 90.2774 97.9144 72.7988 97.9063 50.6052C97.9063 20.7613 96.9042 20.3475 122.047 23.2671C146.94 27.9354 145.786 17.8885 145.754 51.4639Z" fill="white"/>
</mask>
<g mask="url(#mask6_1910_1288)">
<path d="M122.279 90.2692C116.065 86.3816 123.842 83.3215 121.429 80.2536C120.37 78.9109 120.683 77.2794 121.685 76.7641C118.31 67.0764 124.98 66.7641 124.491 65.1794C124.002 63.5947 119.288 66.2879 117.973 63.3059C116.875 60.8078 121.717 60.0428 120.659 43.3527C120.242 36.8422 114.213 31.8382 121.172 21.0966C128.131 10.3472 103.534 3.59466 87.9645 20.839C68.0574 42.8843 88.4696 95.3043 122.279 90.2614V90.2692Z" fill="#AA7D50"/>
</g>
<path d="M91.1562 23.3143C90.0418 31.269 94.8121 39.7624 108.594 34.2433C126.248 27.1707 141.2 26.7101 145.506 31.3081C144.688 16.3276 131.419 6.24169 113.517 8.25575C101.274 9.63748 92.3348 14.9536 91.1562 23.3221V23.3143Z" fill="#3B2416"/>
<mask id="mask7_1910_1288" style="mask-type:luminance" maskUnits="userSpaceOnUse" x="90" y="8" width="56" height="29">
<path d="M91.1552 23.3144C90.0408 31.2692 94.8111 39.7625 108.593 34.2434C126.247 27.1708 141.199 26.7102 145.505 31.3082C144.687 16.3277 131.418 6.24182 113.516 8.25587C101.273 9.6376 92.3338 14.9538 91.1552 23.3222V23.3144Z" fill="white"/>
</mask>
<g mask="url(#mask7_1910_1288)">
<path d="M157.242 45.5077C159.158 -17.6696 61.0097 2.52561 79.7462 6.11656C95.4521 9.12983 116.209 10.0588 117.484 29.7075C118.318 42.5725 155.342 108.677 157.25 45.4999L157.242 45.5077Z" fill="#5F3A1A"/>
</g>
<path d="M133.977 49.4735C138.25 49.4735 141.714 47.2157 141.714 44.4305C141.714 41.6454 138.25 39.3876 133.977 39.3876C129.705 39.3876 126.241 41.6454 126.241 44.4305C126.241 47.2157 129.705 49.4735 133.977 49.4735Z" fill="#AA7D50"/>
<path d="M134.527 48.3075C134.551 46.7944 133.936 45.558 133.152 45.5461C132.369 45.5341 131.714 46.751 131.689 48.2641C131.665 49.7772 132.28 51.0135 133.064 51.0255C133.848 51.0375 134.503 49.8206 134.527 48.3075Z" fill="black"/>
<path d="M111.545 51.0367C112.329 51.0247 112.944 49.7884 112.92 48.2753C112.895 46.7622 112.24 45.5453 111.456 45.5573C110.673 45.5693 110.057 46.8056 110.082 48.3187C110.106 49.8318 110.761 51.0487 111.545 51.0367Z" fill="black"/>
<path d="M127.098 41.6354C127.812 40.2537 128.926 39.2154 130.201 38.4036C131.492 37.6151 133.023 37.0453 134.747 37.014C135.605 37.0062 136.502 37.1233 137.36 37.4512C138.21 37.7713 138.996 38.3099 139.565 38.9656C140.736 40.2771 141.104 41.9087 140.856 43.4075C139.677 42.3848 138.699 41.5261 137.721 41.1046C136.767 40.6518 135.877 40.5581 134.811 40.566C133.753 40.5816 132.558 40.7533 131.283 40.9797C130 41.1983 128.654 41.4637 127.098 41.6276V41.6354Z" fill="#5F3A1A"/>
<path d="M117.053 42.354C115.489 42.1901 114.15 41.9247 112.867 41.7061C111.593 41.4797 110.398 41.3002 109.34 41.2923C108.274 41.2923 107.384 41.386 106.43 41.831C105.451 42.2525 104.473 43.1112 103.295 44.1339C103.046 42.635 103.415 41.0035 104.586 39.692C105.163 39.0363 105.941 38.4976 106.79 38.1776C107.64 37.8497 108.546 37.7248 109.404 37.7404C111.128 37.7795 112.659 38.3415 113.95 39.13C115.233 39.9418 116.339 40.9723 117.053 42.3618V42.354Z" fill="#3B2416"/>
<path d="M98.147 56.4678C98.147 56.4678 98.9968 100.426 122.015 100.832C145.032 101.23 145.505 57.4123 145.505 57.4123C145.505 57.4123 137.769 66.3039 122.407 66.6942C107.006 67.0845 98.147 56.4756 98.147 56.4756V56.4678Z" fill="#5F3A1A"/>
<mask id="mask8_1910_1288" style="mask-type:luminance" maskUnits="userSpaceOnUse" x="98" y="56" width="48" height="45">
<path d="M98.147 56.4678C98.147 56.4678 98.9968 100.426 122.015 100.832C145.032 101.23 145.505 57.4123 145.505 57.4123C145.505 57.4123 137.769 66.3039 122.407 66.6942C107.006 67.0845 98.147 56.4756 98.147 56.4756V56.4678Z" fill="white"/>
</mask>
<g mask="url(#mask8_1910_1288)">
<path d="M131.241 98.1149C125.028 94.2273 122.775 87.225 122.013 81.7449C120.955 80.4022 122.158 77.1937 123.16 76.6785C118.277 66.5692 124.972 66.7644 124.491 65.1875C124.002 63.6028 120.899 66.3897 119.584 63.3998C118.486 60.9018 121.717 60.0431 120.658 43.3608C120.242 36.8502 114.213 31.8463 121.172 21.1047C128.131 10.3553 103.533 3.60271 87.9638 20.8471C68.0568 42.8924 112.826 126.351 131.241 98.1149Z" fill="#3B2416"/>
</g>
<path d="M112.57 70.363C118.423 69.879 119.104 69.1218 122.015 70.3396C125.045 68.9891 126.729 69.434 130.826 70.2849C130.176 73.6651 128.172 81.7447 122.015 81.7447C115.024 81.7447 112.618 72.7517 112.57 70.363Z" fill="#C29A6D"/>
<mask id="mask9_1910_1288" style="mask-type:luminance" maskUnits="userSpaceOnUse" x="112" y="69" width="19" height="13">
<path d="M112.57 70.3629C118.422 69.8789 119.104 69.1216 122.014 70.3394C125.045 68.9889 126.728 69.4339 130.825 70.2848C130.176 73.665 128.172 81.7446 122.014 81.7446C115.023 81.7446 112.618 72.7516 112.57 70.3629Z" fill="white"/>
</mask>
<g mask="url(#mask9_1910_1288)">
<path d="M122.279 90.2694C116.066 86.3818 124.428 84.3911 122.015 81.331C120.956 79.9883 122.079 77.2951 123.081 76.7877C118.19 66.7799 124.981 66.7721 124.492 65.1952C124.003 63.6105 119.858 66.655 118.543 63.6729C117.445 61.1749 121.718 60.0585 120.66 43.3684C120.243 36.8579 114.214 31.854 121.173 21.1124C128.132 10.3629 103.535 3.6104 87.9649 20.8548C68.0579 42.9001 88.47 95.3201 122.279 90.2772V90.2694Z" fill="#AA7D50"/>
</g>
<path d="M130.537 70.5118C128.349 70.9178 124.019 74.2043 112.827 70.5821C112.827 70.5821 116.17 76.7336 122.015 76.7882C126.946 76.835 130.537 70.5196 130.537 70.5196V70.5118Z" fill="black"/>
<mask id="mask10_1910_1288" style="mask-type:luminance" maskUnits="userSpaceOnUse" x="112" y="70" width="19" height="7">
<path d="M130.538 70.512C128.349 70.9179 124.02 74.2044 112.828 70.5822C112.828 70.5822 116.171 76.7337 122.015 76.7883C126.946 76.8352 130.538 70.5198 130.538 70.5198V70.512Z" fill="white"/>
</mask>
<g mask="url(#mask10_1910_1288)">
<path d="M122.312 73.8924C116.764 73.8924 116.21 72.2842 113.557 69.2397C110.903 66.1952 130.008 69.1695 130.008 69.1695C130.008 69.1695 127.795 73.9002 122.304 73.9002L122.312 73.8924Z" fill="white"/>
</g>
<defs>
<filter id="filter0_d_1910_1288" x="-9.53674e-07" y="-9.53674e-07" width="254" height="254" filterUnits="userSpaceOnUse" color-interpolation-filters="sRGB">
<feFlood flood-opacity="0" result="BackgroundImageFix"/>
<feColorMatrix in="SourceAlpha" type="matrix" values="0 0 0 0 0 0 0 0 0 0 0 0 0 0 0 0 0 0 127 0" result="hardAlpha"/>
<feOffset dy="4"/>
<feGaussianBlur stdDeviation="6"/>
<feComposite in2="hardAlpha" operator="out"/>
<feColorMatrix type="matrix" values="0 0 0 0 0 0 0 0 0 0 0 0 0 0 0 0 0 0 0.1 0"/>
<feBlend mode="normal" in2="BackgroundImageFix" result="effect1_dropShadow_1910_1288"/>
<feBlend mode="normal" in="SourceGraphic" in2="effect1_dropShadow_1910_1288" result="shape"/>
</filter>
</defs>
</svg>
